<?xml version="1.0" encoding="utf-8"?>
<!-- Generator: Adobe Illustrator 24.0.2, SVG Export Plug-In . SVG Version: 6.00 Build 0)  -->
<svg version="1.1" id="_x32_cf41747-0c0c-4d70-aad4-093c093adad4"
	 xmlns="http://www.w3.org/2000/svg" xmlns:xlink="http://www.w3.org/1999/xlink" x="0px" y="0px" viewBox="0 0 1022.8 813.2"
	 style="enable-background:new 0 0 1022.8 813.2;" xml:space="preserve">
<style type="text/css">
	.st0{opacity:0.2;fill:#A497FF;enable-background:new    ;}
	.st1{fill:#EE0979;}
	.st2{fill:#33CC45;}
	.st3{fill:#444053;}
	.st4{fill:#143D03;}
	.st5{fill:#D5D6DB;}
	.st6{opacity:0.1;enable-background:new    ;}
	.st7{opacity:0.3;fill:#FFFFFF;enable-background:new    ;}
	.st8{fill:#FF6A00;}
	.st9{fill:#3A3768;}
	.st10{opacity:0.6;fill:#FF6A00;enable-background:new    ;}
	.st11{opacity:0.45;fill:#FFFFFF;enable-background:new    ;}
	.st12{opacity:0.3;fill:#EE0979;enable-background:new    ;}
	.st13{fill:url(#SVGID_1_);}
	.st14{fill:#690011;}
	.st15{fill:#3E373A;}
	.st16{fill:#6D3209;}
	.st17{fill:#4B4B5B;}
	.st18{opacity:2.000000e-02;enable-background:new    ;}
	.st19{fill:#FFCAA6;}
	.st20{fill:#632B04;}
	.st21{fill:#C3C7D9;}
	.st22{fill:#E7C7CA;}
	.st23{opacity:0.1;}
	.st24{opacity:0.1;fill:none;stroke:#000000;stroke-miterlimit:10;enable-background:new    ;}
	.st25{fill:#5B2602;}
	.st26{opacity:0.1;fill:#99440A;enable-background:new    ;}
	.st27{fill:#FFD037;}
	.st28{fill:#65617D;}
	.st29{fill:#9D9CB5;}
</style>
<title>book lover</title>
<path class="st0" d="M571.3,158.2c-59.2-2.1-115.7-21.2-169.5-42.1S294.6,72,236.8,61c-37.2-7.1-79.7-8.1-109.7,11.8
	c-28.8,19.2-38.2,52.3-43.2,83c-3.8,23.1-6,47.4,4.3,69.1c7.2,15,19.9,27.7,28.7,42.1c30.6,50.1,9,111.8-24.2,160.7
	c-15.6,22.9-33.6,44.8-45.6,69.2s-17.6,52.4-7.1,77.3c10.4,24.7,35.3,43.2,62.1,56.3c54.6,26.5,119,34.1,181.8,38.4
	c139,9.5,278.6,5.4,418,1.3c51.6-1.5,103.3-3.1,154.1-11c28.2-4.4,57.2-11.4,77.7-28.4c26-21.5,32.4-58,15-85
	c-29.2-45.3-109.8-56.5-130.3-105.2c-11.2-26.8,0.3-56.6,16.6-81.4c35-53.2,93.7-99.9,96.7-160.8c2.1-41.8-26.1-83.6-69.7-103.4
	c-45.6-20.8-109-18.2-142.6,16.1C684.6,146.5,623.6,160.1,571.3,158.2z"/>
<polygon class="st1" points="420.9,664.4 107.6,662.9 76.5,589.9 186.5,581.9 167.4,501.9 385,473.6 176.6,401.2 195,396.8 
	530.2,451.5 511.7,576.4 485.4,645.1 "/>
<path class="st1" d="M112.4,632.3c0,0,19.2-3.1,30.8,10.5c0,0-8.5,6.7-26.7-2.6L112.4,632.3z"/>
<path class="st1" d="M110.4,632c0,0-12.3,15.1-6.2,31.9c0,0,10-4,11.1-24.4L110.4,632z"/>
<path class="st1" d="M99.4,607.2c0,0,7.7-14.1,38.4,5.6c0,0-4.1,9.5-17.7,8.7S103,614.6,99.4,607.2z"/>
<path class="st1" d="M97.4,606.2c0,0-16-1.8-17.5,34.7c0,0,10.1,2.1,17.3-9.5S101.4,613.4,97.4,606.2z"/>
<path class="st2" d="M88.1,577.1c0,0,9-24.9,41.5-7.2c0,0-7.4,22.8-38.2,15.6L88.1,577.1z"/>
<path class="st2" d="M78.1,539.9c0,0,16.9-25.1,46.9-1.8c0,0-10.5,23.6-44.3,10.8L78.1,539.9z"/>
<path class="st2" d="M74.5,504.5c0,0,19.7-23.1,49.4,0c0,0-18.7,20.2-49.4,5.9V504.5z"/>
<path class="st2" d="M71.4,470.2c0,0,20-24.1,48.4-1.3c0,0-22.6,21.3-48.4,6.9V470.2z"/>
<path class="st2" d="M73.2,439.7c0,0,21-31,47.7-10c0,0-22.6,26.7-47.7,15.9V439.7z"/>
<path class="st2" d="M78.1,404.1c0,0,22.3-30.8,48.2-7.2c0,0-26.4,26.7-48.2,12.8C78.1,409.7,78.1,404.1,78.1,404.1z"/>
<path class="st2" d="M85.5,372.2c0,0,26.4-28.9,49.4-17.4c0,0-27.5,30.7-50.6,25.1L85.5,372.2z"/>
<path class="st2" d="M94.8,342.1c0,0,30.5-35.4,48.2-23.6c0,0-22.4,27.5-50.3,30.2L94.8,342.1z"/>
<path class="st2" d="M108.1,307c0,0,26.7-28.9,46.1-21.7c0,0-22.8,30-49.7,30.8L108.1,307z"/>
<path class="st2" d="M120.1,274.3c0,0,29.5-27.7,42.3-22.8c0,0-21.3,30.8-43.6,29L120.1,274.3z"/>
<path class="st2" d="M131.9,244.1c0,0,25.4-33.1,39.2-30.5c0,0-15.4,29.5-39.2,33.9V244.1z"/>
<path class="st2" d="M144.7,203.3c0,0,22.4-25.3,34.5-25.3c0,0-17.7,33.9-35.5,33.6L144.7,203.3z"/>
<path class="st2" d="M152.3,176.1l21.7-52.8c0,0,1.1,47.7-24.4,62.6L152.3,176.1z"/>
<path class="st2" d="M161.1,117.9c0,0,3.6-44.1,1.3-47.7c0,0,15.5,36.7-1.4,67.1L161.1,117.9z"/>
<path class="st2" d="M87.3,576.5c0,0-22.5-13.9-37,20.1c0,0,20,13.3,39.6-11.4L87.3,576.5z"/>
<path class="st2" d="M77.4,538.5c0,0-27.5-12.6-40.9,23c0,0,21.3,14.6,43.4-14L77.4,538.5z"/>
<path class="st2" d="M73.2,506.7c0,0-19.7-23.1-49.4,0c0,0,18.7,20.2,49.4,5.9V506.7z"/>
<path class="st2" d="M70.8,470.2c0,0-20-24.1-48.4-1.3c0,0,22.6,21.3,48.4,6.9V470.2z"/>
<path class="st2" d="M73.2,440.6c0,0-14-34.7-44.5-19.8c0,0,16.5,30.8,43.3,25.6L73.2,440.6z"/>
<path class="st2" d="M79.9,403.9c0,0-13.9-35.3-44.8-19c0,0,18.9,32.4,43.5,24.4L79.9,403.9z"/>
<path class="st2" d="M88.5,372.4c0,0-5.5-38.7-31.1-42.2c0,0,5.4,40.9,27.7,49.2L88.5,372.4z"/>
<path class="st2" d="M95.4,342.1c0,0-2.1-46.7-23.3-48.3c0,0,0.7,35.4,20.9,54.9L95.4,342.1z"/>
<path class="st2" d="M110.3,305.7c0,0-6.3-38.8-26.5-43.6c0,0,2.5,37.6,24.5,53.1L110.3,305.7z"/>
<path class="st2" d="M122.5,274.6c0,0-0.2-40.4-12.6-46.4c0,0-7.7,36.6,9,51.5L122.5,274.6z"/>
<path class="st2" d="M132.9,243.6c0,0-1.7-41.6-14.5-47.5c0,0-4.4,32.9,12.6,50.2L132.9,243.6z"/>
<path class="st2" d="M146.5,206.6c0,0-0.1-33.9-9.2-41.8c0,0-9.1,37.1,4.4,48.6L146.5,206.6z"/>
<path class="st2" d="M151.2,174.5l-8.9-56.4c0,0-12.1,46.2,9.3,66.5L151.2,174.5z"/>
<path class="st2" d="M152.9,118.5c0,0-22.8-37.9-22.3-42.1c0,0,2.4,39.7,31.1,59.5L152.9,118.5z"/>
<path class="st2" d="M155.6,107.3c0,0-21.5-53.8-31.3-58.2c0,0,30.8,15.6,33.1,56.6L155.6,107.3z"/>
<path class="st3" d="M143.7,211.9l-1.5-0.4c18.2-59.2,22.7-97,12.8-106.5l1.1-1.1C166.6,113.8,162.3,151.2,143.7,211.9z"/>
<path class="st3" d="M93.6,350.6l-2.2-0.8c1.9-5.4,4-10.9,6.2-16.4c19-47.3,35.1-91.2,45.5-125l1.9-0.9
	c-10.4,33.8-26.2,79.5-45.2,126.8C97.6,339.7,95.6,345.1,93.6,350.6z"/>
<path class="st4" d="M139.5,676.7c-0.3-0.3-29.7-33.5-50.3-90.1c-12-33.1-18.7-68-19.8-103.2c-1.4-44,7.8-93.2,23.7-137.9l1.7,2
	c-35.5,100.3-21.4,186.2-2.7,238c20.3,56.1,49.4,88.9,49.7,89.2L139.5,676.7z"/>
<path class="st5" d="M599.6,606.3c0,0-20.7,25.3-4.3,63.6l-165.7,71.8l-15.9,3.3l-7.3-32l4.9-40.4v-22.1L599.6,606.3z"/>
<polygon class="st1" points="76.5,589.9 305.7,548.1 609.6,596.5 420.9,664.4 "/>
<polygon class="st1" points="76.5,589.9 305.7,548.1 609.6,596.5 420.9,664.4 "/>
<path class="st1" d="M76.5,589.9c0,0-21.4,40.6,3.3,78.1l340,73.7c0,0-21.1-32.4,1.1-77.3L76.5,589.9z"/>
<path class="st6" d="M76.5,589.9c0,0-21.4,40.6,3.3,78.1l340,73.7c0,0-21.1-32.4,1.1-77.3L76.5,589.9z"/>
<path class="st6" d="M86.6,604c0,0-12.3,29.7,0,49"/>
<path class="st1" d="M419.7,741.7l189.8-81c0,0,10.6,2.3,3.8,10.1s-189.9,78.7-189.9,78.7L79.7,668L419.7,741.7z"/>
<path class="st6" d="M419.7,741.7l189.8-81c0,0,10.6,2.3,3.8,10.1s-189.9,78.7-189.9,78.7L79.7,668L419.7,741.7z"/>
<path class="st6" d="M404.2,672.6c0,0-18.3,22,0,54.9"/>
<rect x="408.6" y="685.9" transform="matrix(0.9486 -0.3165 0.3165 0.9486 -193.9989 178.3115)" class="st6" width="86.6" height="0.9"/>
<rect x="407.4" y="688.2" transform="matrix(0.9347 -0.3554 0.3554 0.9347 -214.7013 208.4937)" class="st6" width="105.5" height="0.9"/>
<rect x="406.8" y="692.5" transform="matrix(0.9255 -0.3788 0.3788 0.9255 -227.6228 228.8746)" class="st6" width="122.2" height="0.9"/>
<rect x="406.5" y="694.3" transform="matrix(0.9113 -0.4117 0.4117 0.9113 -243.7375 257.934)" class="st6" width="140.7" height="0.9"/>
<rect x="407.3" y="696.2" transform="matrix(0.9163 -0.4005 0.4005 0.9163 -238.4734 252.2518)" class="st6" width="153.9" height="0.9"/>
<rect x="408.3" y="696.8" transform="matrix(0.918 -0.3965 0.3965 0.918 -235.4425 255.5606)" class="st6" width="184.2" height="0.9"/>
<polygon class="st7" points="161.6,594.4 322.7,560.5 420.9,579.3 288.9,621.8 "/>
<path class="st1" d="M609.6,596.5c0,0,8.3,3.4,3.4,8.5c-4.9,5.2-192.2,59.4-192.2,59.4L609.6,596.5z"/>
<path class="st5" d="M690.4,518.2c0,0-20.7,25.3-4.3,63.6l-165.7,71.8l-15.9,3.3l-7.3-32l5-40.4v-22.1L690.4,518.2z"/>
<polygon class="st8" points="167.4,501.9 396.6,460.1 700.4,508.5 511.7,576.4 "/>
<path class="st9" d="M167.3,501.9c0,0-21.5,40.6,3.3,78.1l340,73.7c0,0-21.1-32.4,1.1-77.3L167.3,501.9z"/>
<path class="st10" d="M167.3,501.9c0,0-21.5,40.6,3.3,78.1l340,73.7c0,0-21.1-32.4,1.1-77.3l-107.5-23.3L167.3,501.9z"/>
<path class="st6" d="M177.5,515.9c0,0-12.2,29.7,0,49"/>
<path class="st9" d="M510.6,653.7l189.8-81c0,0,10.6,2.3,3.7,10.1s-189.9,78.7-189.9,78.7L170.6,580L510.6,653.7z"/>
<path class="st8" d="M510.6,653.7l189.8-81c0,0,10.6,2.3,3.7,10.1s-189.9,78.7-189.9,78.7L170.6,580L510.6,653.7z"/>
<path class="st6" d="M495.1,584.6c0,0-18.3,22,0,54.9"/>
<rect x="499.5" y="597.9" transform="matrix(0.9486 -0.3165 0.3165 0.9486 -161.4738 202.5584)" class="st6" width="86.6" height="0.9"/>
<rect x="498.3" y="600.2" transform="matrix(0.9347 -0.3554 0.3554 0.9347 -177.4928 235.0551)" class="st6" width="105.5" height="0.9"/>
<rect x="497.7" y="604.5" transform="matrix(0.9255 -0.3788 0.3788 0.9255 -187.5156 256.752)" class="st6" width="122.2" height="0.9"/>
<rect x="497.4" y="606.3" transform="matrix(0.9113 -0.4117 0.4117 0.9113 -199.4473 287.5555)" class="st6" width="140.7" height="0.9"/>
<rect x="498.2" y="608.2" transform="matrix(0.9163 -0.4005 0.4005 0.9163 -195.6223 281.2945)" class="st6" width="153.9" height="0.9"/>
<rect x="499.2" y="608.7" transform="matrix(0.918 -0.3965 0.3965 0.918 -193.0562 284.3799)" class="st6" width="184.2" height="0.9"/>
<polygon class="st11" points="252.5,506.3 413.6,472.5 511.7,491.2 379.7,533.8 "/>
<path class="st8" d="M700.4,508.5c0,0,8.3,3.4,3.4,8.5c-4.9,5.2-192.1,59.4-192.1,59.4L700.4,508.5z"/>
<path class="st5" d="M699.1,417.5c0,0-20.7,45.5-4.3,83.7L529.1,553l-15.9,3.4l-7.3-32l4.9-40.4v-22.1L699.1,417.5z"/>
<polygon class="st1" points="176,401.2 405.3,359.4 709.1,407.8 520.4,475.7 "/>
<path class="st1" d="M176,401.2c0,0-21.5,40.6,3.2,78.1l340,73.7c0,0-21.1-32.4,1.1-77.3L176,401.2z"/>
<path class="st6" d="M176,401.2c0,0-21.5,40.6,3.2,78.1l340,73.7c0,0-21.1-32.4,1.1-77.3L176,401.2z"/>
<path class="st6" d="M186.1,415.2c0,0-12.3,29.7,0,49"/>
<path class="st1" d="M519.3,553l189.8-60.9c0,0,10.6,2.3,3.8,10.1S523,560.8,523,560.8l-343.7-81.5L519.3,553z"/>
<path class="st6" d="M519.3,553l189.8-60.9c0,0,10.6,2.3,3.8,10.1S523,560.8,523,560.8l-343.7-81.5L519.3,553z"/>
<path class="st6" d="M503.7,483.9c0,0-18.3,22,0,54.9"/>
<rect x="508.1" y="497.2" transform="matrix(0.9486 -0.3165 0.3165 0.9486 -129.1606 200.1023)" class="st6" width="86.6" height="0.9"/>
<rect x="506.9" y="499.5" transform="matrix(0.9347 -0.3554 0.3554 0.9347 -141.1436 231.536)" class="st6" width="105.5" height="0.9"/>
<rect x="506.3" y="503.8" transform="matrix(0.9255 -0.3788 0.3788 0.9255 -148.7302 252.5041)" class="st6" width="122.2" height="0.9"/>
<rect x="506" y="505.6" transform="matrix(0.9113 -0.4117 0.4117 0.9113 -157.228 282.1631)" class="st6" width="140.7" height="0.9"/>
<rect x="506.8" y="507.5" transform="matrix(0.9163 -0.4005 0.4005 0.9163 -154.5736 276.3072)" class="st6" width="153.9" height="0.9"/>
<rect x="507.8" y="508.1" transform="matrix(0.918 -0.3965 0.3965 0.918 -152.4698 279.5448)" class="st6" width="184.2" height="0.9"/>
<polygon class="st7" points="261.2,405.6 422.2,371.8 520.4,390.5 388.4,433.1 "/>
<path class="st1" d="M709.1,407.8c0,0,8.3,3.4,3.4,8.5s-192.1,59.4-192.1,59.4L709.1,407.8z"/>
<path class="st2" d="M306.4,129.9c0,0-34.8-2.1-30.7,22.3c0,0-0.8,4.3,3.1,6.3c0,0,0.1-1.8,3.6-1.2c1.3,0.2,2.5,0.3,3.8,0.2
	c1.7-0.1,3.3-0.8,4.6-1.9l0,0c0,0,9.8-4,13.6-20c0,0,2.8-3.5,2.7-4.4l-5.9,2.5c0,0,2,4.2,0.4,7.8c0,0-0.2-7.6-1.3-7.4
	c-0.2,0-3,1.5-3,1.5s3.5,7.4,0.8,12.7c0,0,1-9.1-1.9-12.2l-4.1,2.4c0,0,4,7.6,1.3,13.8c0,0,0.7-9.5-2.2-13.3l-3.8,2.9
	c0,0,3.8,7.5,1.5,12.7c0,0-0.3-11.1-2.3-12c0,0-3.3,2.9-3.8,4.1c0,0,2.6,5.5,1,8.3c0,0-1-7.4-1.8-7.4c0,0-3.3,4.9-3.6,8.2
	c0.2-3.1,1.1-6.1,2.8-8.7c-1.9,0.4-3.6,1.3-5,2.6c0,0,0.5-3.5,5.8-3.8c0,0,2.7-3.7,3.4-3.9c0,0-5.3-0.4-8.5,1c0,0,2.8-3.3,9.4-1.8
	l3.7-3c0,0-6.9-0.9-9.9,0.1c0,0,3.4-2.9,10.9-0.8l4-2.4c0,0-5.9-1.3-9.4-0.8c0,0,3.7-2,10.6,0.2l2.9-1.3c0,0-4.3-0.9-5.6-1
	c-1.3-0.1-1.3-0.5-1.3-0.5c2.7-0.5,5.6-0.1,8.1,0.9C300.4,132.6,306.5,130.3,306.4,129.9z"/>
<path class="st2" d="M795.7,230.2c0,0-34.8-2.1-30.7,22.3c0,0-0.8,4.3,3.1,6.3c0,0,0.1-1.8,3.6-1.2c1.3,0.2,2.5,0.3,3.8,0.2
	c1.7-0.1,3.3-0.8,4.6-1.9l0,0c0,0,9.8-4,13.6-20c0,0,2.8-3.5,2.7-4.4l-5.9,2.5c0,0,2,4.2,0.4,7.8c0,0-0.2-7.6-1.3-7.4
	c-0.2,0-3.1,1.5-3.1,1.5s3.5,7.4,0.9,12.7c0,0,1-9.1-1.9-12.2l-4.1,2.4c0,0,4,7.6,1.3,13.8c0,0,0.7-9.5-2.2-13.3l-3.7,2.9
	c0,0,3.8,7.5,1.5,12.7c0,0-0.3-11.1-2.3-12c0,0-3.3,2.9-3.8,4.1c0,0,2.6,5.5,1,8.3c0,0-1-7.4-1.8-7.4c0,0-3.3,4.9-3.6,8.2
	c0.2-3.1,1.1-6.1,2.8-8.7c-1.9,0.4-3.6,1.3-5,2.6c0,0,0.5-3.5,5.8-3.8c0,0,2.7-3.7,3.4-4c0,0-5.3-0.4-8.5,1c0,0,2.8-3.3,9.4-1.8
	l3.7-3c0,0-6.9-0.9-9.9,0.1c0,0,3.4-2.9,10.9-0.8l4-2.4c0,0-5.9-1.3-9.4-0.8c0,0,3.7-2,10.6,0.2l2.9-1.3c0,0-4.3-0.9-5.6-1
	s-1.3-0.5-1.3-0.5c2.7-0.5,5.6-0.1,8.1,0.9C789.6,232.8,795.8,230.6,795.7,230.2z"/>
<path class="st2" d="M365,280.7c0,0-15.2-31.4-34.4-15.9c0,0-4.2,1.4-4,5.8c0,0,1.6-0.8,2.7,2.5c0.4,1.2,1,2.3,1.7,3.4
	c0.9,1.4,2.3,2.5,3.9,3.1l0,0c0,0,8.3,6.6,24.1,2.1c0,0,4.4,0.8,5.1,0.2L359,278c0,0-2.7,3.8-6.6,4.2c0,0,6.6-3.9,5.8-4.8
	c-0.1-0.2-2.7-1.9-2.7-1.9s-4.8,6.6-10.7,7c0,0,8.4-3.6,9.7-7.6l-4.1-2.4c0,0-4.7,7.2-11.5,7.9c0,0,8.7-4,10.5-8.4l-4.4-1.8
	c0,0-4.7,7-10.4,7.5c0,0,9.6-5.7,9.3-7.8c0,0-4.1-1.4-5.4-1.3c0,0-3.5,4.9-6.8,4.9c0,0,6-4.5,5.6-5.2c0,0-5.9-0.5-9,0.9
	c2.8-1.4,5.9-2,9-1.8c-1.2-1.5-2.9-2.5-4.7-3.1c0,0,3.3-1.2,6.1,3.2c0,0,4.6,0.5,5.1,1.1c0,0-2.2-4.8-5-6.9c0,0,4.2,0.9,6.2,7.3
	l4.4,1.8c0,0-2.6-6.5-4.9-8.6c0,0,4.2,1.5,6,9.2l4.1,2.3c0,0-1.8-5.8-3.9-8.6c0,0,3.6,2.3,5,9.4l2.5,1.9c0,0-1.4-4.2-1.8-5.4
	s-0.2-1.4-0.2-1.4c1.7,2.2,2.8,4.8,3.2,7.6C359.8,276.8,364.7,281,365,280.7z"/>
<path class="st2" d="M716.2,185.8c0,0-15.1-31.4-34.4-15.9c0,0-4.2,1.4-4,5.8c0,0,1.6-0.8,2.7,2.5c0.4,1.2,1,2.3,1.7,3.4
	c0.9,1.4,2.3,2.5,3.9,3.1l0,0c0,0,8.3,6.6,24.1,2.1c0,0,4.4,0.8,5.2,0.2l-5-3.9c0,0-2.7,3.8-6.6,4.2c0,0,6.5-3.9,5.8-4.8
	c-0.1-0.2-2.7-1.9-2.7-1.9s-4.8,6.6-10.7,7c0,0,8.4-3.6,9.7-7.6l-4.2-2.4c0,0-4.7,7.2-11.5,7.9c0,0,8.7-4,10.5-8.4l-4.4-1.8
	c0,0-4.7,7-10.3,7.5c0,0,9.5-5.7,9.3-7.8c0,0-4.1-1.5-5.4-1.3c0,0-3.5,4.9-6.8,4.9c0,0,6-4.5,5.6-5.2c0,0-5.9-0.5-9,0.9
	c2.8-1.4,5.9-2,9-1.8c-1.2-1.5-2.9-2.5-4.7-3.1c0,0,3.3-1.2,6.1,3.2c0,0,4.6,0.5,5.1,1.1c0,0-2.2-4.8-5-6.9c0,0,4.2,0.9,6.2,7.4
	l4.4,1.8c0,0-2.6-6.5-4.9-8.6c0,0,4.2,1.5,6,9.2l4.1,2.3c0,0-1.8-5.8-3.9-8.6c0,0,3.6,2.3,5,9.4l2.5,1.9c0,0-1.4-4.2-1.8-5.4
	c-0.5-1.2-0.2-1.4-0.2-1.4c1.7,2.2,2.8,4.8,3.2,7.6C711,182,716,186.1,716.2,185.8z"/>
<path class="st2" d="M764.6,341.3c0,0-15.1-31.4-34.5-15.9c0,0-4.2,1.4-4,5.8c0,0,1.6-0.8,2.7,2.5c0.4,1.2,1,2.3,1.7,3.4
	c0.9,1.4,2.3,2.5,3.9,3.1l0,0c0,0,8.3,6.6,24.1,2.1c0,0,4.4,0.8,5.1,0.2l-5.1-3.9c0,0-2.7,3.8-6.6,4.2c0,0,6.5-3.9,5.8-4.8
	c-0.1-0.2-2.7-1.9-2.7-1.9s-4.8,6.6-10.7,7c0,0,8.4-3.6,9.7-7.6l-4.1-2.4c0,0-4.7,7.2-11.5,7.9c0,0,8.7-4,10.5-8.4l-4.4-1.8
	c0,0-4.7,7-10.3,7.5c0,0,9.6-5.7,9.3-7.8c0,0-4.1-1.5-5.4-1.3c0,0-3.5,4.9-6.8,4.9c0,0,6-4.5,5.6-5.2c0,0-5.9-0.5-9,0.9
	c2.8-1.4,5.9-2,9-1.8c-1.2-1.5-2.9-2.6-4.7-3.1c0,0,3.3-1.3,6.1,3.2c0,0,4.6,0.5,5.1,1.1c0,0-2.2-4.8-5-6.9c0,0,4.2,0.9,6.2,7.4
	l4.4,1.8c0,0-2.6-6.5-4.9-8.6c0,0,4.2,1.5,6,9.2l4.1,2.3c0,0-1.8-5.8-3.9-8.6c0,0,3.6,2.3,5,9.4l2.5,1.8c0,0-1.4-4.2-1.8-5.4
	c-0.5-1.2-0.2-1.4-0.2-1.4c1.7,2.2,2.8,4.8,3.2,7.6C759.4,337.3,764.4,341.5,764.6,341.3z"/>
<ellipse class="st12" cx="207.2" cy="747.8" rx="21" ry="2.4"/>
<ellipse class="st12" cx="69.2" cy="707.8" rx="21" ry="2.4"/>
<ellipse class="st12" cx="312.3" cy="774.3" rx="21" ry="2.4"/>
<ellipse class="st12" cx="851.1" cy="716.5" rx="21" ry="2.4"/>
<ellipse class="st12" cx="676" cy="705.1" rx="21" ry="2.4"/>
<ellipse class="st12" cx="562.7" cy="758.8" rx="24.9" ry="4.3"/>
<path class="st2" d="M592.3,733.7c0,0-37.6-10.3-38.7,17.4c0,0-1.9,4.5,1.9,7.6c0,0,0.5-2,4.2-0.5c1.3,0.5,2.7,0.9,4.1,1
	c1.9,0.3,3.8-0.2,5.5-1.1l0,0c0,0,11.7-2.2,19.5-18.8c0,0,3.9-3.2,4-4.2l-7,1.4c0,0,1.2,5-1.3,8.6c0,0,1.5-8.4,0.3-8.4
	c-0.3,0-3.7,0.9-3.7,0.9s2.1,8.8-2,14.2c0,0,3.2-9.7,0.7-13.8l-5.1,1.7c0,0,2.6,9.2-1.8,15.5c0,0,3-10.3,0.7-15l-4.8,2.4
	c0,0,2.4,9.1-1.3,14.2c0,0,2.3-12.2,0.3-13.6c0,0-4.2,2.4-5.1,3.6c0,0,1.5,6.6-0.8,9.3c0,0,0.6-8.3-0.3-8.6c0,0-4.7,4.7-5.8,8.2
	c0,0,1.3-5.4,5.1-8.9c-2.1-0.1-4.3,0.5-6,1.7c0,0,1.3-3.7,7.2-2.8c0,0,3.8-3.4,4.6-3.5c0,0-5.7-1.7-9.5-0.9c0,0,3.8-2.9,10.7,0.2
	l4.7-2.5c0,0-7.4-2.6-10.8-2.2c0,0,4.4-2.4,12.1,1.6l5-1.7c0,0-6.2-2.7-10.1-3.1c0,0,4.5-1.4,11.6,2.6l3.4-0.8c0,0-4.5-1.9-5.9-2.3
	c-1.4-0.4-1.4-0.9-1.4-0.9c3.1,0.2,6.1,1.2,8.7,2.8C585.2,735.3,592.3,734.1,592.3,733.7z"/>
<linearGradient id="SVGID_1_" gradientUnits="userSpaceOnUse" x1="611.2032" y1="-268.8203" x2="611.2032" y2="190.3115" gradientTransform="matrix(1 0 0 -1 -88.58 222.58)">
	<stop  offset="0" style="stop-color:#808080;stop-opacity:0.25"/>
	<stop  offset="0.54" style="stop-color:#808080;stop-opacity:0.12"/>
	<stop  offset="1" style="stop-color:#808080;stop-opacity:0.1"/>
</linearGradient>
<path class="st13" d="M676.7,377.8c-6-16.3-38.9-17.8-53.2-13.6c-10.2,3-31.6,6.3-43,8l-0.7-0.7c1.5-0.4,1.5-1.5,1.3-3.1
	c-0.1-2.1-0.1-4.2,0.1-6.3c7,2.2,13.3-3,13.3-3l0,0c8.2-3.7,6-19.3,7.6-23.6c1.2-3.2,2.5-22.1,3-31.5h0.1l0.1-3.2
	c0.1-1.4,0.1-2.2,0.1-2.2s0.8-23,2.4-27.7c1.5-4.3,2.7-25.9,2.8-29.3c0-0.3,0-0.4,0-0.4l-0.1-2c0.1-1.5,0.1-3.1,0.1-4.8
	c0-7.8-0.8-17.7-0.9-19.3c0-0.2,0-0.5,0-0.8c0.1-3.3-0.4-20.1-14.6-26.4c-5.2-2.3-11.5-5.1-17.7-7.9c-1.6-13.6-5.2-27.1-4.9-40.8
	c0-2.1,0.2-4.1,0.4-6.2c0,0.6-0.1,1.2-0.1,1.8c0,1.3,0,2.7,0,4c0.5-17.1,7-34.3,6.4-51.1c-0.1,1.6-0.2,3.3-0.3,4.9
	c0.3-5.7-0.3-11.4-1.8-16.8c-0.5-1.9-1.3-3.9-2.9-5.2c-1.5-1-3.2-1.7-5-2c-4.3-1.1-8.7-1.9-13.2-2.5c-0.7-2.1-1.7-4-3-5.8
	c-9.3-12.7-23-24.7-39.3-27.5c-8.2-1.4-17.5-0.2-23.1,5.6c-0.6,0.5-1.1,1.1-1.6,1.6c-3,3.6-4.3,8.2-7.3,11.8
	c-0.2,0.2-0.4,0.5-0.6,0.7c-6,5.4-15.3,6.5-22,11.3c-1.2,0.9-2.3,1.8-3.3,2.9c-2.7,2.7-5.1,5.6-7.2,8.7c-3,4.2-6.1,8.6-7,13.6
	c-1.9,10.1,4.9,19.6,6.2,29.7c2.8,22.7-22.2,42.8-17.5,65.2c1.3,5.5,4.1,10.5,8.1,14.5c-9.8,8.9-18.1,17.5-18.1,17.5v0.5h-1.5
	l0.2,1.8h-0.2l0.9,9.9l-0.9,14.5c0,0,0,0.2,0,0.4v0.1v0.4c0,0,0,0.2,0,0.4h0.1c0.3,5.3,1.4,24.4,2.7,28.4c1.6,4.7,2.4,27.7,2.4,27.7
	s1.7,32.5,3.3,36.8c1.6,4.3-0.7,19.9,7.6,23.6l0,0c2.4,1.9,5.3,3,8.3,3.4c-0.4,3.4-0.2,5.9,1.2,6.7c0.6,0.3,1.2,0.5,1.9,0.5
	c-0.6,0.8-1.1,1.7-1.5,2.6c-3.3-0.3-6.5-1.1-9.6-2.3c-8.9-3.7-38.3-11.9-46.9-6.1s-29.1,11-19.6,34.4c9.5,23.3,13.9,23.9,13.9,23.9
	c2.9,2.1,5.5,4.7,7.6,7.6c2.9,4.3,29.5,14.1,36.1,14.1c2.8,0,5.7,0.1,8.5,0.4c0,0-7.2,6.3-6.3,10c1,3.7-2.2,33.1-2.2,33.1
	s7.3,7.4,10.5-2.3l0.1,0.1c0.6,0.8,3.8,4.4,9.7-0.1c2.4-1.8,5-3.5,7.7-4.9l28.8-4.1c3-0.2,6-0.2,9-0.1c4.6,0.4,9.1-2.3,11.9-4.4
	c6,2.3,12.7,4.7,15.9,5.7c6.5,1.8,36.3,9.8,43.2,7.3c1.4-0.6,2.7-1.5,3.8-2.7l6.6,0.2l-3.1,0.6c0,0,6.1,0.1,14.3,0.2l-0.3,0.2
	l10.3-0.1c15.1,0.1,32.1,0.2,34.3-0.3c3.5-0.8,21.7-0.2,27,0h1.5c0,0,20-4,11.7-24.2c-6.3-15.6-25.8-20.1-34.4-21.3
	c2.4-0.5,4.5-0.9,5.9-1.1c6-0.9,17.7-6.4,18.7-8.3s10.8-7.3,13.3-10.4C675.4,416,682.7,394,676.7,377.8z M511.3,423.3l-1,0.3
	l-0.7,0.2l-1.3,1.2c-1-0.7-2.1-1.4-3.2-2.1C507.2,423.1,509.2,423.2,511.3,423.3z M598.6,449.1L598.6,449.1z"/>
<path class="st14" d="M569.7,326.8c0,0,14,36.6,22,32.9s5.8-19.2,7.3-23.5s3.2-36.6,3.2-36.6s0.8-22.9,2.3-27.5
	c1.4-4.3,2.6-25.7,2.7-29.1c0-0.3,0-0.4,0-0.4l-1.5-26.5l-8.5-2.1l-19.8,7.3l-2.7,15.7l-1.1,6.1l-0.5,2.6L569.7,326.8z"/>
<path class="st6" d="M574.3,320.7c0,0,13.4,10.9,17.4,11.9s6.5,9.5,6.5,9.5"/>
<path class="st14" d="M460.2,328.4c0,0-14,36.6-22,32.9s-5.8-19.2-7.3-23.5s-3.2-36.6-3.2-36.6s-0.8-22.9-2.3-27.5
	c-1.4-4.3-2.6-25.7-2.7-29.1c0-0.3,0-0.4,0-0.4l1.5-26.5l8.5-2.1l19.8,7.3l2.7,15.7l1.1,6.1l0.5,2.6L460.2,328.4z"/>
<rect x="520.1" y="132.5" class="st15" width="31.3" height="48.7"/>
<rect x="520.1" y="132.5" class="st16" width="31.3" height="48.7"/>
<path class="st17" d="M454.7,364.9c0,0-10.7,11.7-6.7,13.9c4,2.1,29.6,42.1,29.6,42.1s84.2,10.4,100.1-5.2s15.6-43.4,15.6-43.4
	s-12.8,2.7-14.1,1.3c-1.4-1.5-9-8.7-9-8.7S462,358.3,454.7,364.9z"/>
<path class="st18" d="M454.7,364.9c0,0-10.7,11.7-6.7,13.9c4,2.1,29.6,42.1,29.6,42.1s84.2,10.4,100.1-5.2s15.6-43.4,15.6-43.4
	s-12.8,2.7-14.1,1.3c-1.4-1.5-9-8.7-9-8.7S462,358.3,454.7,364.9z"/>
<path class="st19" d="M606.3,216.4l-27.5,22l-8.3,0.6l-3,0.2l-51.2,3.8l-53.1-3.9l-7.9-0.6l-10.1-0.7l-21-20.1c0,0,14.9-16,28-26.7
	c5.1-4.3,10-7.7,13.5-9.1l0.6-0.2c2.2-0.9,4.2-2.3,5.8-4c10.3-10.6,19.8-36.8,19.8-36.8s45.5-23.5,40,7.3s20.4,23.2,20.4,23.2
	l8.5,3.9l3.4,1.5l8.6,3.9l19.4,8.9C607.5,196.6,606.3,216.4,606.3,216.4z"/>
<ellipse transform="matrix(0.3417 -0.9398 0.9398 0.3417 220.9149 565.4348)" class="st6" cx="514.1" cy="125" rx="40.9" ry="40.9"/>
<path class="st6" d="M606.3,245.6H422.7c0-0.3,0-0.4,0-0.4l1.5-26.5c0,0,14.9-16,28-26.7l115.3-4.6l5.4-5.7l19.4,8.9
	c15.3,7,14,26.8,14,26.8S608.4,240.3,606.3,245.6z"/>
<path class="st14" d="M606.3,244.6H422.7c0-0.3,0-0.4,0-0.4l1.5-26.5c0,0,14.9-16,28-26.7l115.3-4.6l5.4-5.7l19.4,8.9
	c15.3,7,14,26.8,14,26.8S608.4,239.4,606.3,244.6z"/>
<path class="st6" d="M484.7,170.2c0,0,29,36.9,67.6-0.8s4.3,84,4.3,84l-83.3,9.9L484.7,170.2z"/>
<path class="st14" d="M484.7,172c0,0,29,36.9,67.6-0.8s4.3,84,4.3,84l-83.3,9.9L484.7,172z"/>
<path class="st6" d="M564.2,178.5l3.1,46.8l3.3,15.6l2.5,11.9c0,0,6.4,91.5,4.6,96.1c-1.8,4.6,0.9,8.2,1.3,10.7
	c0.4,2.4-0.4,8.5-0.1,11.3c0.3,2.7,0,4-7,3s-16.8-2.7-16.8-2.7s-24.7,1.8-33.2-1.2s-24.7-3.1-24.7-3.1s-24.4,0.6-32.3-0.3
	s-12.2,9.8-17.4,6.7c-5.2-3.1,6.1-32.6,9.8-41.2c3.7-8.5-4.9-30.2-4.9-30.2l11-60.9l2.4-13.8v-43.4l0.6-0.2c2.2-0.9,4.2-2.3,5.8-4
	l2.7,43.7l86,3.1V177"/>
<path class="st14" d="M564.2,176.7l3.1,46.8l3.3,15.6l2.5,11.9c0,0,6.4,91.5,4.6,96.1s0.9,8.2,1.3,10.7c0.4,2.4-0.4,8.5-0.1,11.3
	c0.3,2.7,0,4-7,3s-16.8-2.7-16.8-2.7s-24.7,1.8-33.2-1.2s-24.7-3.1-24.7-3.1s-24.4,0.6-32.3-0.3s-12.2,9.8-17.4,6.7
	c-5.2-3.1,6.1-32.6,9.8-41.2c3.7-8.5-4.9-30.2-4.9-30.2l11-60.9l2.4-13.8V182l0.6-0.2c2.2-0.9,4.2-2.3,5.8-4l2.7,43.7l86,3.1v-49.2"
	/>
<path class="st6" d="M574.1,79.1c-0.5-1.9-1.2-3.9-2.7-5.2c-1.4-1-3.1-1.7-4.8-2c-4.2-1.1-8.4-1.9-12.7-2.4c-0.6-2-1.5-4-2.7-5.7
	c-9-12.7-22.2-24.6-37.9-27.3c-8.2-1.4-17.6-0.1-22.9,6.3c-2.9,3.5-4.1,8.2-7,11.7c-5.6,6.8-15.7,7.6-22.7,12.8
	c-3.8,2.7-6.5,6.7-9.2,10.6c-2.9,4.2-5.8,8.5-6.8,13.5c-1.8,10,4.8,19.5,6,29.6c2.7,22.5-21.4,42.5-16.8,64.8
	c2.7,13,14.6,22.1,27,26.7c4.4,1.6,9.4,3.3,11.4,7.5c0.9,1.8,1.1,3.9,1.9,5.8c2.9,6.2,12.4,6.4,17.5,1.9s6.7-11.8,7.3-18.5
	c2.5-29.6-9.4-58.9-8-88.6c0.4-9,2.9-19.2,11-23.2c10.8-5.5,23.9,3.7,35.8,1.9c5.6,13.7,6.8,28.9,3.4,43.3
	c-1.9,7.9-5.2,15.6-5.4,23.7c-0.4,12.4,6.3,23.7,12.1,34.7c1.2,2.1,2.1,4.3,2.4,6.7c0.1,2.4-0.4,4.8-1.3,7c-3.3,8.8-8.9,17-9.5,26.3
	c-0.2,1.1,0.1,2.2,0.7,3.1c0.6,0.6,1.5,1,2.4,1.1c9.9,1.7,18.4-7.1,23.3-15.9c5.4-9.7,8.5-20.5,9.2-31.6c1-18.6-5.7-37-5.3-55.6
	C570.1,120.9,579.7,99.6,574.1,79.1z"/>
<path class="st20" d="M575,78.2c-0.5-1.9-1.2-3.9-2.7-5.2c-1.4-1-3.1-1.7-4.8-2c-4.2-1.1-8.4-1.9-12.7-2.4c-0.6-2-1.5-4-2.7-5.7
	c-9-12.7-22.2-24.6-37.9-27.3c-8.2-1.4-17.6-0.1-22.9,6.3c-2.9,3.5-4.1,8.2-7,11.7c-5.6,6.8-15.7,7.6-22.7,12.8
	c-3.8,2.7-6.5,6.7-9.2,10.6c-2.9,4.2-5.8,8.5-6.8,13.5c-1.8,10,4.8,19.5,6,29.6c2.7,22.5-21.4,42.5-16.8,64.8
	c2.7,13,14.6,22.1,27,26.7c4.4,1.6,9.4,3.3,11.4,7.5c0.9,1.8,1.1,3.9,1.9,5.8c2.9,6.2,12.4,6.4,17.5,1.9s6.7-11.8,7.3-18.5
	c2.5-29.6-9.4-58.9-8-88.6c0.4-9,2.9-19.2,11-23.2c10.8-5.5,23.9,3.7,35.8,1.9c5.6,13.7,6.8,28.9,3.4,43.3
	c-1.9,7.9-5.2,15.6-5.4,23.7c-0.4,12.4,6.3,23.7,12.1,34.7c1.2,2.1,2.1,4.3,2.4,6.7c0.1,2.4-0.4,4.8-1.3,7c-3.3,8.8-8.9,17-9.5,26.3
	c-0.2,1.1,0.1,2.2,0.7,3.1c0.6,0.6,1.5,1,2.4,1.1c9.9,1.7,18.4-7.1,23.3-15.9c5.4-9.7,8.5-20.5,9.2-31.6c1-18.6-5.7-37-5.3-55.6
	C571,120,580.6,98.7,575,78.2z"/>
<polygon class="st21" points="554.8,483.4 591.1,484.6 585.9,457.7 558.1,460.3 "/>
<path class="st17" d="M667.3,419.6c-2.4,3-11.9,8.5-12.8,10.4s-12.2,7.3-18,8.2s-24.1,4.9-27.5,7c-2.4,1.5-21.7,6.4-34.4,9.1
	c-3.4,0.8-6.9,1.4-10.4,1.9c-5.5,0.3-65.6-20.1-65.6-20.1l11.6-11.9l0.6-0.2c3.3-1.1,18.4-6.2,26.8-8.7c9.5-2.7,20.4-14,20.4-14
	s16.2-5.5,18.3-6.1s-5.5-21.4-5.5-21.4s35.1-4.9,48.8-9s45.5-2.6,51.3,13.6C676.7,394.6,669.8,416.6,667.3,419.6z"/>
<path class="st22" d="M507.4,471.2c0,0-7,7.3-14,6.7c-7-0.6-31.6,1.8-31.6,1.8c-4.4,1.8-8.6,4.2-12.4,7.2c-5.7,4.5-8.8,0.9-9.4,0.1
	l-0.1-0.1c-3.1,9.6-10.1,2.3-10.1,2.3s3-29.3,2.1-32.9c-0.9-3.7,6-9.9,6-9.9l8.2-2.1L467,439l29.9,10.4L507.4,471.2z"/>
<path class="st6" d="M446.3,444.2l-6.2,42.9L440,487c-3.1,9.6-10.1,2.3-10.1,2.3s3-29.3,2.1-32.9c-0.9-3.7,6-9.9,6-9.9L446.3,444.2z
	"/>
<path class="st6" d="M489.5,322.3c0,0,16.2,5.5,30.2,0"/>
<path class="st6" d="M544.6,332.7c0,0,6.7,3.3,11.9,0"/>
<path class="st6" d="M544.6,340.6c0,0,11.3,1.5,13.4-1.5"/>
<path class="st6" d="M541,357.7c0,0,21.2-2.7,26.5-6.4"/>
<path class="st6" d="M476.3,351.3c0,0,11.9,6.7,20.7,6.4"/>
<path class="st6" d="M574.6,454.3c-3.4,0.8-6.9,1.4-10.4,1.9c-5.5,0.3-65.6-20.1-65.6-20.1l11.6-11.9l0.6-0.2
	c1.8,1.3,3.3,2.4,4.4,3.2c5,4,9.9-1.2,11.7-1.2s17.7,13.1,17.7,13.1s14.6,3.4,17.1,6.4c2.4,3,11,2.4,12.5,4.6
	C574.7,450.7,574.7,452.4,574.6,454.3z"/>
<path class="st17" d="M461.8,375.1c0,0-14.8,0.9-23.3-2.7s-36.9-11.9-45.1-6.1s-28.1,11-18.9,34.2s13.4,23.8,13.4,23.8
	c2.8,2.1,5.3,4.7,7.3,7.6c2.7,4.3,28.4,14,34.8,14s17.7,0,33.6,11s30.2,12.2,30.2,12.2s20.1,8.2,26.4,10.1
	c6.3,1.8,34.9,9.8,41.6,7.3c6.7-2.4,11-17.7,11-17.7s3-13.7,1.5-15.9c-1.5-2.1-10.1-1.5-12.5-4.6s-17.1-6.4-17.1-6.4
	s-15.8-13.1-17.7-13.1s-6.7,5.2-11.7,1.2c-10-7.4-20.6-14.2-31.6-20.1C472.1,403.7,461.8,375.1,461.8,375.1z"/>
<path class="st6" d="M432.1,383.9c5.3-1.1,10.9,0.4,15,4c7.3,6.1,32,18.4,32,18.4"/>
<path class="st6" d="M615.1,383.5c0,0-32.6,4.9-38.7,11.7"/>
<path class="st22" d="M652.6,484.6h-1.4c-5.2-0.2-22.7-0.7-26,0c-4,0.9-56.4,0-56.4,0l10.3-2.1c0,0-3.8-13.3-1.4-14.5
	c0,0-13.7-9-3.4-15.1c10.4-6.1,21.5-3.5,21.5-3.5l26-8.8l5-1.7c0,0,29.3,1.5,37.2,21.7S652.6,484.6,652.6,484.6z"/>
<path class="st6" d="M652.6,484.6h-1.4c8.5-7,27.8-28.4-29.5-44l5-1.7c0,0,29.3,1.5,37.2,21.7C671.9,480.7,652.6,484.6,652.6,484.6z
	"/>
<circle class="st17" cx="598.8" cy="459.3" r="1.6"/>
<circle class="st17" cx="589.5" cy="461.9" r="1.6"/>
<g class="st23">
	<path d="M544.1,123.5c0.4-10.1-1.4-20.1-5.3-29.4c-11.9,1.8-24.9-7.4-35.8-1.9c-8,4.1-10.5,14.2-11,23.2c-0.1,2.4-0.1,4.7-0.1,7.1
		c0-0.8,0-1.7,0.1-2.5c0.4-9,2.9-19.2,11-23.2c10.8-5.5,23.9,3.7,35.8,1.9C542.1,106.5,543.9,114.9,544.1,123.5z"/>
	<path d="M451.9,121.8c0.2-2,0.1-4-0.1-6c-1-8.1-5.4-15.8-6.2-23.6c-1,9.5,5,18.6,6.2,28.2C451.9,120.9,451.9,121.3,451.9,121.8z"/>
	<path d="M500.2,203.9c-0.6,6.8-2.2,14-7.3,18.6c-5.2,4.5-14.6,4.3-17.5-1.9c-0.9-1.8-1.1-4-1.9-5.8c-2-4.2-7-5.8-11.4-7.5
		c-12.4-4.6-24.4-13.7-27-26.7c-0.2-1.2-0.4-2.4-0.5-3.6c-0.2,2.7-0.1,5.5,0.5,8.1c2.7,13,14.6,22.1,27,26.7
		c4.4,1.6,9.4,3.3,11.4,7.5c0.9,1.8,1.1,3.9,1.9,5.8c2.9,6.2,12.4,6.4,17.5,1.9s6.7-11.8,7.3-18.6c0.3-3.6,0.4-7.2,0.3-10.7
		C500.5,199.8,500.3,201.9,500.2,203.9z"/>
	<path d="M570.9,136.9c0,1.3,0,2.6,0,4c0.5-17,6.8-34.1,6.1-50.8C576.5,105.4,571.2,121.2,570.9,136.9z"/>
	<path d="M551.2,205.7c0.2-1.1,0.3-2.2,0.2-3.3c-0.4-2.4-1.2-4.6-2.4-6.7c-5.3-10.1-11.3-20.4-12-31.5c0,0.5-0.1,0.9-0.1,1.4
		c-0.4,12.4,6.3,23.7,12.1,34.7C550,202,550.7,203.8,551.2,205.7z"/>
	<path d="M576.1,192.5c-0.7,11.1-3.8,21.9-9.2,31.6c-4.8,8.8-13.4,17.6-23.3,15.9c-0.9-0.1-1.7-0.5-2.4-1.1
		c-0.2-0.2-0.3-0.5-0.4-0.7c-0.1,0.7-0.2,1.4-0.3,2.2c-0.2,1.1,0.1,2.2,0.7,3.1c0.6,0.6,1.5,1,2.4,1.1c9.9,1.7,18.4-7.1,23.3-15.9
		c5.4-9.7,8.6-20.5,9.2-31.6c0.1-2.1,0.1-4.3,0.1-6.4C576.2,191.3,576.2,191.9,576.1,192.5z"/>
</g>
<path class="st24" d="M577.6,468c0,0,23.2,9.7,38.4-11.8"/>
<path class="st24" d="M582.2,485c0,0,18.9-12.3,43-0.4"/>
<path class="st24" d="M455.5,482.2c0,0,7.9-17.9,29.2-4.3"/>
<path class="st6" d="M429.8,217.2l16.2-14.6c0,0,62.8-4.1,65.4,17.2c0,0,22.3-25.3,69.1-19.7l19.8,15.8l-54.8,24l-53.2,18.5
	l-39.2-17.5L429.8,217.2z"/>
<path class="st5" d="M429.8,218.1l16.2-14.6c0,0,62.8-4.1,65.4,17.2c0,0,22.3-25.3,69.1-19.7l19.8,15.8l-54.8,24l-53.2,18.5
	l-39.2-17.5L429.8,218.1z"/>
<polygon class="st6" points="422.6,219.9 429.8,305.7 505.8,309.5 502.5,224.1 502.4,222.7 "/>
<polygon class="st8" points="422.6,218.1 429.8,303.8 505.8,307.7 502.5,222.3 502.4,220.9 "/>
<polygon class="st6" points="603.8,218.1 525.4,229.9 525.4,316 602,304.9 "/>
<polygon class="st8" points="603.8,216.3 525.4,228 525.4,314.1 602,303.1 "/>
<polygon class="st7" points="585.3,237.3 543,242 543.9,256.4 585.3,251.9 "/>
<path class="st19" d="M433.9,349.7l4.3,11.6c0,0,6.4,5.5,13.4,2.7s13.1-4.1,16.2-6.8s7.3-16.1,7.3-16.1s4.3-14.6,8.5-18.3
	c4.3-3.7,15.6-54.1,0-49.2s-27.5,50.7-27.5,50.7s-2.7,3.3-6.7,3.7c-4,0.3-11.9-0.6-13.4,2.7C434.5,334.2,429.3,343,433.9,349.7z"/>
<path class="st19" d="M487,315.1l-26.4-5.1c4.8-13.9,13.2-33.3,23.1-36.4C495.9,269.7,491.5,300.2,487,315.1z"/>
<path class="st6" d="M525.4,229.9c-8.1,1.8-16.7-0.3-23-5.7l3.3,85.4c0,0,7.8,8.4,19.7,6.5V229.9z"/>
<path class="st1" d="M525.4,228c-8.1,1.8-16.7-0.3-23-5.7l3.3,85.4c0,0,7.8,8.4,19.7,6.5V228z"/>
<path class="st10" d="M525.4,228c-8.1,1.8-16.7-0.3-23-5.7l3.3,85.4c0,0,7.8,8.4,19.7,6.5V228z"/>
<path class="st6" d="M527.3,218.4c0,0,31.9-9.7,40.2-8.4"/>
<path class="st6" d="M491.6,214.1c0,0-30.9-7.3-36.1-5.2"/>
<path class="st6" d="M547.4,219.6c0,0,21.3-7.8,29-4.1"/>
<path class="st6" d="M536.6,415.7c3.3-2.5,6.8-4.7,10.5-6.5c5.5-2.6,15.6-9.5,15.6-9.5"/>
<path class="st6" d="M455.5,322.3c0,0-13.4,10.9-17.4,11.9s-6.5,9.5-6.5,9.5"/>
<path class="st19" d="M595.9,348.1l-4.3,11.6c0,0-6.4,5.5-13.4,2.7s-13.1-4.1-16.2-6.8s-7.3-16.1-7.3-16.1s-4.3-14.6-8.5-18.3
	c-4.3-3.7-15.6-54.1,0-49.2s27.5,50.7,27.5,50.7s2.7,3.3,6.7,3.7c4,0.3,11.9-0.6,13.4,2.7C595.3,332.6,600.5,341.4,595.9,348.1z"/>
<path class="st19" d="M570.7,312.5l-26.5,5c-4.8-12.4-11.5-49.7,2-45.5C557.1,275.4,566.2,298.7,570.7,312.5z"/>
<path class="st6" d="M588.4,326.7c0,0,8.7,5.6,8.7,12.3"/>
<ellipse transform="matrix(0.3417 -0.9398 0.9398 0.3417 222.9263 564.3063)" class="st19" cx="514.3" cy="123" rx="40.9" ry="40.9"/>
<path class="st25" d="M488.6,112c5-0.8,9.3-3.7,14-5.3c10.6-3.7,22.3-1.2,33.1,2.2c4.1,1.3,8.3,2.7,12.6,2.7s8.9-1.8,11.1-5.5
	c2-3.4,1.6-7.9-0.1-11.5c-1.7-3.6-4.6-6.5-7.5-9.2c-9.5-9-21.3-17.4-34.4-16.5c-5.3,0.4-10.3,2.3-15.1,4.3c-6.1,2.6-12,5.6-17.7,8.9
	c-4.4,2.6-12.6,6-15.1,10.6C463.8,103.4,479.6,113.4,488.6,112z"/>
<path class="st26" d="M559.5,102.3c-2.2,3.7-6.8,5.5-11.1,5.5s-8.5-1.4-12.6-2.7c-10.7-3.4-22.5-5.9-33.1-2.2
	c-4.7,1.7-9.1,4.6-14,5.3c-7.2,1.1-18.9-5.2-20.1-13.2c-1.4,9.3,12.1,17.2,20.1,15.9c5-0.8,9.3-3.7,14-5.3
	c10.6-3.7,22.3-1.2,33.1,2.2c4.1,1.3,8.3,2.7,12.6,2.7c4.3-0.1,8.9-1.8,11.1-5.5c1.1-2,1.6-4.4,1.3-6.7
	C560.6,99.7,560.2,101.1,559.5,102.3z"/>
<path class="st2" d="M891.2,598.3c0,0,5.4,7.1-2.5,17.8s-14.5,19.8-11.8,26.4c0,0,12-19.9,21.7-20.2
	C908.4,622.1,901.9,610.2,891.2,598.3z"/>
<path class="st6" d="M891.2,598.3c0.5,0.7,0.8,1.4,1.1,2.2c9.5,11.2,14.6,21.6,5.4,21.8c-8.5,0.2-18.7,15.5-21.2,19.3
	c0.1,0.3,0.2,0.6,0.3,0.9c0,0,12-19.9,21.7-20.2C908.4,622.1,901.9,610.2,891.2,598.3z"/>
<path class="st27" d="M901.3,607.3c0,2.5-0.3,4.5-0.6,4.5s-0.6-2-0.6-4.5s0.3-1.3,0.7-1.3S901.3,604.8,901.3,607.3z"/>
<path class="st27" d="M904.8,610.3c-2.2,1.2-4.1,1.9-4.3,1.6c-0.2-0.3,1.5-1.5,3.7-2.7s1.3-0.3,1.5,0
	C905.8,609.5,907,609.1,904.8,610.3z"/>
<path class="st2" d="M862.6,598.3c0,0-5.4,7.1,2.5,17.8s14.5,19.8,11.8,26.4c0,0-12-19.9-21.7-20.2
	C845.4,622.1,851.9,610.2,862.6,598.3z"/>
<path class="st6" d="M862.6,598.3c-0.5,0.7-0.8,1.4-1.1,2.2c-9.5,11.2-14.6,21.6-5.4,21.8c8.5,0.2,18.7,15.5,21.2,19.3
	c-0.1,0.3-0.2,0.6-0.3,0.9c0,0-12-19.9-21.7-20.2C845.4,622.1,851.9,610.2,862.6,598.3z"/>
<path class="st27" d="M852.5,607.3c0,2.5,0.3,4.5,0.6,4.5s0.6-2,0.6-4.5s-0.4-1.3-0.7-1.3S852.5,604.8,852.5,607.3z"/>
<path class="st27" d="M849,610.3c2.2,1.2,4.1,1.9,4.3,1.6c0.2-0.3-1.5-1.5-3.7-2.7s-1.3-0.3-1.5,0C848,609.5,846.8,609.1,849,610.3z
	"/>
<ellipse class="st12" cx="876.9" cy="688.1" rx="56.7" ry="8.7"/>
<path class="st28" d="M906.1,633l-0.3,2.2l-0.4,3.1l-0.2,1.3l-0.4,3.1l-0.2,1.3l-0.4,3.1l-4.3,35.6c-0.4,3.2-5.6,5.7-11.8,5.7h-22.6
	c-6.3,0-11.4-2.5-11.8-5.7l-4.3-35.6L849,644l-0.2-1.3l-0.4-3.1l-0.2-1.3l-0.4-3.1l-0.3-2.2c-0.2-1.8,2.6-3.3,6.1-3.3H900
	C903.5,629.6,906.3,631.2,906.1,633z"/>
<polygon class="st29" points="905.8,635.2 905.5,638.3 848.4,638.3 848,635.2 "/>
<polygon class="st29" points="905.3,639.6 904.9,642.7 848.9,642.7 848.5,639.6 "/>
<polygon class="st29" points="904.8,644 904.4,647.2 849.4,647.2 849.1,644 "/>
<path class="st2" d="M803.1,554.3c0,0-15.1-31.4-34.5-15.9c0,0-4.2,1.4-4,5.8c0,0,1.6-0.8,2.7,2.5c0.4,1.2,1,2.3,1.7,3.4
	c0.9,1.4,2.3,2.5,3.9,3.1l0,0c0,0,8.3,6.6,24.1,2.1c0,0,4.4,0.8,5.1,0.2l-5.1-3.9c0,0-2.7,3.8-6.6,4.2c0,0,6.5-3.9,5.8-4.8
	c-0.1-0.2-2.7-1.9-2.7-1.9s-4.8,6.6-10.7,7c0,0,8.4-3.6,9.7-7.6l-4.1-2.4c0,0-4.7,7.2-11.5,7.9c0,0,8.7-4,10.5-8.4l-4.4-1.8
	c0,0-4.7,7-10.3,7.5c0,0,9.6-5.7,9.3-7.8c0,0-4.1-1.5-5.4-1.3c0,0-3.5,4.9-6.8,4.9c0,0,6-4.5,5.6-5.2c0,0-5.9-0.5-9,0.9
	c2.8-1.4,5.9-2,9-1.8c-1.2-1.5-2.9-2.6-4.7-3.1c0,0,3.3-1.3,6.1,3.2c0,0,4.6,0.5,5.1,1.1c0,0-2.2-4.8-5-6.9c0,0,4.2,0.9,6.2,7.4
	l4.4,1.8c0,0-2.6-6.5-4.9-8.6c0,0,4.2,1.5,6,9.2l4.1,2.3c0,0-1.8-5.8-3.9-8.6c0,0,3.6,2.3,5,9.4l2.5,1.8c0,0-1.4-4.2-1.8-5.4
	c-0.5-1.2-0.2-1.4-0.2-1.4c1.7,2.2,2.8,4.8,3.2,7.6C797.8,550.4,802.8,554.6,803.1,554.3z"/>
<path class="st2" d="M673.7,372.5c0,0-15.1-31.4-34.5-15.9c0,0-4.2,1.4-4,5.8c0,0,1.6-0.8,2.7,2.5c0.4,1.2,1,2.3,1.7,3.4
	c0.9,1.4,2.3,2.5,3.9,3.1l0,0c0,0,8.3,6.6,24.1,2.1c0,0,4.4,0.8,5.1,0.2l-5.1-3.9c0,0-2.7,3.8-6.6,4.2c0,0,6.5-3.9,5.8-4.8
	c-0.1-0.2-2.7-1.9-2.7-1.9s-4.8,6.6-10.7,7c0,0,8.4-3.6,9.7-7.6l-4.1-2.4c0,0-4.7,7.2-11.5,7.9c0,0,8.7-4,10.5-8.4l-4.4-1.8
	c0,0-4.7,7-10.3,7.5c0,0,9.6-5.7,9.3-7.8c0,0-4.1-1.5-5.4-1.3c0,0-3.5,4.9-6.8,4.9c0,0,6-4.5,5.6-5.2c0,0-5.9-0.5-9,0.9
	c2.8-1.4,5.9-2,9-1.8c-1.2-1.5-2.9-2.6-4.7-3.1c0,0,3.3-1.3,6.1,3.2c0,0,4.6,0.5,5.1,1.1c0,0-2.2-4.8-5-6.9c0,0,4.2,0.9,6.2,7.4
	l4.4,1.8c0,0-2.6-6.5-4.9-8.6c0,0,4.2,1.5,6,9.2l4.1,2.3c0,0-1.8-5.8-3.9-8.6c0,0,3.6,2.3,5,9.4l2.5,1.8c0,0-1.4-4.2-1.8-5.4
	c-0.5-1.2-0.2-1.4-0.2-1.4c1.7,2.2,2.8,4.8,3.2,7.6C668.4,368.5,673.4,372.8,673.7,372.5z"/>
</svg>
